<svg xmlns="http://www.w3.org/2000/svg" viewBox="0 0 1280 640" width="1280" height="640" role="img" aria-labelledby="t d">
  <title id="t">X-HERMES-MCP</title>
  <desc id="d">Personal X research via Grok-4.x, free under your X Premium Plus subscription</desc>

  <defs>
    <linearGradient id="bg" x1="0" y1="0" x2="1" y2="1">
      <stop offset="0" stop-color="#05070d"/>
      <stop offset="1" stop-color="#0c1326"/>
    </linearGradient>
    <radialGradient id="vignette" cx="0.7" cy="0.5" r="0.9">
      <stop offset="0" stop-color="#0c1326" stop-opacity="0"/>
      <stop offset="1" stop-color="#000000" stop-opacity="0.55"/>
    </radialGradient>
    <pattern id="stars" x="0" y="0" width="160" height="160" patternUnits="userSpaceOnUse">
      <circle cx="14"  cy="22"  r="0.6" fill="#8b95a7" opacity="0.55"/>
      <circle cx="62"  cy="98"  r="0.5" fill="#8b95a7" opacity="0.35"/>
      <circle cx="118" cy="40"  r="0.7" fill="#cfd6e4" opacity="0.45"/>
      <circle cx="142" cy="132" r="0.4" fill="#8b95a7" opacity="0.30"/>
      <circle cx="38"  cy="146" r="0.8" fill="#cfd6e4" opacity="0.55"/>
      <circle cx="96"  cy="70"  r="0.45" fill="#8b95a7" opacity="0.30"/>
    </pattern>
    <pattern id="scanlines" x="0" y="0" width="1" height="3" patternUnits="userSpaceOnUse">
      <rect x="0" y="0" width="1" height="1" fill="#ffffff" opacity="0.012"/>
    </pattern>
  </defs>

  <rect width="1280" height="640" fill="url(#bg)"/>
  <rect width="1280" height="640" fill="url(#stars)"/>
  <rect width="1280" height="640" fill="url(#scanlines)"/>
  <rect width="1280" height="640" fill="url(#vignette)"/>

  <g font-family="ui-monospace, 'JetBrains Mono', 'IBM Plex Mono', 'SFMono-Regular', Menlo, monospace" text-rendering="geometricPrecision">
    <text x="96" y="296" font-size="86" font-weight="700" letter-spacing="2" fill="#E6F1FF">X-HERMES-MCP</text>
    <text x="96" y="356" font-size="34" font-weight="500" letter-spacing="1" fill="#9146FF">Personal X research via Grok-4.x</text>
    <text x="96" y="402" font-size="22" font-weight="400" letter-spacing="0.5" fill="#8B95A7">Free under your X Premium Plus subscription</text>
  </g>

  <g stroke="#1F6FEB" stroke-width="2" fill="none" stroke-linecap="round" stroke-linejoin="round">
    <g transform="translate(950 380)">
      <rect x="0" y="0" width="180" height="140" rx="6"/>
      <line x1="0" y1="40" x2="180" y2="40"/>
      <line x1="0" y1="80" x2="180" y2="80"/>
      <line x1="0" y1="120" x2="180" y2="120"/>
      <circle cx="20" cy="20" r="3" fill="#1F6FEB"/>
      <circle cx="20" cy="60" r="3" fill="#1F6FEB"/>
      <circle cx="20" cy="100" r="3" fill="#1F6FEB"/>
      <line x1="42" y1="18" x2="160" y2="18" stroke-dasharray="3 4"/>
      <line x1="42" y1="58" x2="160" y2="58" stroke-dasharray="3 4"/>
      <line x1="42" y1="98" x2="160" y2="98" stroke-dasharray="3 4"/>
      <line x1="44" y1="138" x2="44" y2="148"/>
      <line x1="136" y1="138" x2="136" y2="148"/>
    </g>
    <circle cx="1010" cy="320" r="3.2" fill="#1F6FEB"/>
    <circle cx="1040" cy="270" r="2.6" fill="#1F6FEB" opacity="0.8"/>
    <circle cx="1070" cy="220" r="2.2" fill="#1F6FEB" opacity="0.6"/>
    <path d="M 990 380 Q 1080 200 1170 100" stroke-width="1.6" opacity="0.85"/>
    <g transform="translate(1130 60)">
      <path d="M 0 0 L 40 50 M 40 0 L 0 50" stroke-width="3"/>
    </g>
  </g>

  <g font-family="ui-monospace, 'JetBrains Mono', 'IBM Plex Mono', monospace" font-size="16" letter-spacing="3" fill="#5B6478" text-anchor="middle">
    <text x="640" y="588">MCP  ·  OAuth 2.1  ·  Self-hosted  ·  FastMCP</text>
  </g>
</svg>
